<svg id="visual" viewBox="0 0 540 960" width="540" height="960" xmlns="http://www.w3.org/2000/svg" xmlns:xlink="http://www.w3.org/1999/xlink" version="1.1"><rect x="0" y="0" width="540" height="960" fill="#e6e6e6"></rect><defs><linearGradient id="grad1_0" x1="0%" y1="0%" x2="100%" y2="100%"><stop offset="30%" stop-color="#e6e6e6" stop-opacity="1"></stop><stop offset="70%" stop-color="#e6e6e6" stop-opacity="1"></stop></linearGradient></defs><defs><linearGradient id="grad2_0" x1="0%" y1="0%" x2="100%" y2="100%"><stop offset="30%" stop-color="#e6e6e6" stop-opacity="1"></stop><stop offset="70%" stop-color="#e6e6e6" stop-opacity="1"></stop></linearGradient></defs><g transform="translate(540, 0)"><path d="M0 243C-21.1 227.5 -42.2 212 -66.7 205.4C-91.3 198.8 -119.2 201.2 -137.5 189.3C-155.8 177.5 -164.5 151.4 -180.4 131.1C-196.3 110.7 -219.5 96 -231.1 75.1C-242.7 54.2 -242.9 27.1 -243 0L0 0Z" fill="#9896d0"></path></g><g transform="translate(0, 960)"><path d="M0 -243C22.1 -228.7 44.3 -214.4 67.1 -206.4C89.8 -198.3 113.3 -196.5 136.4 -187.7C159.4 -178.9 182.2 -163.3 196.6 -142.8C211 -122.4 217.1 -97.2 223.5 -72.6C229.9 -48 236.4 -24 243 0L0 0Z" fill="#9896d0"></path></g></svg>