<svg id="visual" viewBox="0 0 960 540" width="960" height="540" xmlns="http://www.w3.org/2000/svg" xmlns:xlink="http://www.w3.org/1999/xlink" version="1.1"><rect x="0" y="0" width="960" height="540" fill="#f8f8f8"></rect><defs><linearGradient id="grad1_0" x1="43.8%" y1="0%" x2="100%" y2="100%"><stop offset="14.444444444444446%" stop-color="#f8f8f8" stop-opacity="1"></stop><stop offset="85.55555555555554%" stop-color="#f8f8f8" stop-opacity="1"></stop></linearGradient></defs><defs><linearGradient id="grad2_0" x1="0%" y1="0%" x2="56.3%" y2="100%"><stop offset="14.444444444444446%" stop-color="#f8f8f8" stop-opacity="1"></stop><stop offset="85.55555555555554%" stop-color="#f8f8f8" stop-opacity="1"></stop></linearGradient></defs><g transform="translate(960, 0)"><path d="M0 270C-15.4 259.3 -30.8 248.5 -49.4 248.1C-67.9 247.8 -89.7 257.8 -103.3 249.4C-117 241.1 -122.6 214.6 -133.3 199.6C-144.1 184.6 -159.9 181.2 -171.8 171.8C-183.8 162.5 -191.8 147.3 -197.9 132.2C-204 117.2 -208.2 102.4 -213.4 88.4C-218.6 74.4 -224.8 61.2 -234.4 46.6C-244 32 -257 16 -270 0L0 0Z" fill="#c4c8f8"></path></g><g transform="translate(0, 540)"><path d="M0 -270C18 -270.8 36.1 -271.6 52.7 -264.8C69.3 -258 84.4 -243.6 93.4 -225.4C102.3 -207.3 105.1 -185.4 120 -179.6C134.9 -173.8 162.1 -184.1 180.3 -180.3C198.6 -176.5 208 -158.7 209.5 -140C211.1 -121.4 204.9 -101.9 210.6 -87.3C216.4 -72.6 234.3 -62.7 246.2 -49C258.1 -35.2 264 -17.6 270 0L0 0Z" fill="#c4c8f8"></path></g></svg>